<?xml version="1.0" encoding="UTF-8" standalone="no"?>
<svg
   width="px"
   height="px"
   viewBox="0 0 42 18"
   version="1.1"
   id="svg833"
   xmlns="http://www.w3.org/2000/svg"
   xmlns:svg="http://www.w3.org/2000/svg">
  <defs
     id="defs837" />
  <g
     id="surface1">
    <path
       style=" stroke:none;fill-rule:nonzero;fill:rgb(0%,0%,0%);fill-opacity:1;"
       d="M 4.945312 5.273438 C 5.6875 4.40625 6.546875 3.980469 7.515625 3.992188 C 8.519531 4.015625 9.261719 4.382812 9.738281 5.089844 C 10.226562 5.796875 10.402344 6.757812 10.265625 7.96875 L 9.230469 14.164062 L 6.199219 14.164062 L 7.242188 7.929688 C 7.265625 7.722656 7.269531 7.523438 7.257812 7.339844 C 7.214844 6.730469 6.878906 6.417969 6.246094 6.398438 C 5.699219 6.386719 5.210938 6.585938 4.789062 7 L 3.515625 14.164062 L 0.480469 14.164062 L 2.945312 0 L 5.976562 0 Z M 4.945312 5.273438 "
       id="path824" />
    <path
       style=" stroke:none;fill-rule:nonzero;fill:rgb(0%,0%,0%);fill-opacity:1;"
       d="M 16.804688 4.003906 C 17.695312 4.015625 18.464844 4.238281 19.117188 4.675781 C 19.769531 5.105469 20.246094 5.707031 20.546875 6.484375 C 20.855469 7.257812 20.964844 8.117188 20.878906 9.066406 L 20.859375 9.265625 C 20.6875 10.796875 20.121094 12.035156 19.15625 12.972656 C 18.1875 13.914062 16.996094 14.371094 15.578125 14.347656 C 14.691406 14.335938 13.925781 14.117188 13.28125 13.695312 C 12.636719 13.261719 12.15625 12.664062 11.84375 11.894531 C 11.535156 11.128906 11.425781 10.273438 11.511719 9.332031 C 11.664062 7.695312 12.222656 6.394531 13.1875 5.421875 C 14.160156 4.449219 15.363281 3.976562 16.804688 4.003906 Z M 14.542969 9.332031 L 14.515625 9.875 C 14.429688 11.246094 14.847656 11.945312 15.769531 11.96875 C 16.964844 12.007812 17.65625 11.039062 17.84375 9.066406 L 17.882812 8.226562 C 17.894531 7.671875 17.789062 7.234375 17.570312 6.90625 C 17.351562 6.574219 17.035156 6.402344 16.609375 6.390625 C 16.050781 6.371094 15.589844 6.601562 15.226562 7.082031 C 14.871094 7.554688 14.640625 8.304688 14.542969 9.332031 Z M 14.542969 9.332031 "
       id="path826" />
    <path
       style=" stroke:none;fill-rule:nonzero;fill:rgb(0%,0%,0%);fill-opacity:1;"
       d="M 21.867188 9.128906 C 21.988281 8.109375 22.253906 7.191406 22.660156 6.382812 C 23.0625 5.5625 23.574219 4.957031 24.1875 4.566406 C 24.808594 4.171875 25.515625 3.984375 26.300781 4.003906 C 27.296875 4.027344 28.054688 4.449219 28.570312 5.273438 L 29.039062 4.175781 L 31.703125 4.1875 L 29.308594 18 L 26.265625 18 L 27.195312 13.316406 C 26.527344 14.027344 25.765625 14.371094 24.917969 14.347656 C 23.976562 14.335938 23.234375 13.984375 22.6875 13.289062 C 22.140625 12.59375 21.847656 11.648438 21.808594 10.457031 C 21.796875 10.101562 21.816406 9.65625 21.867188 9.128906 Z M 24.835938 10.089844 C 24.792969 10.636719 24.855469 11.082031 25.027344 11.425781 C 25.199219 11.761719 25.476562 11.9375 25.859375 11.949219 C 26.480469 11.976562 27.007812 11.707031 27.445312 11.148438 L 28.15625 7.175781 C 27.96875 6.671875 27.5625 6.40625 26.929688 6.382812 C 25.816406 6.363281 25.140625 7.277344 24.910156 9.128906 Z M 24.835938 10.089844 "
       id="path828" />
    <path
       style=" stroke:none;fill-rule:nonzero;fill:rgb(0%,0%,0%);fill-opacity:1;"
       d="M 36.25 4.175781 L 36.039062 5.375 C 36.839844 4.429688 37.800781 3.96875 38.925781 3.992188 C 39.847656 4.011719 40.53125 4.355469 40.980469 5.027344 C 41.4375 5.691406 41.601562 6.640625 41.480469 7.882812 L 40.429688 14.164062 L 37.386719 14.164062 L 38.445312 7.867188 C 38.46875 7.652344 38.476562 7.453125 38.464844 7.277344 C 38.421875 6.691406 38.078125 6.398438 37.429688 6.398438 C 36.894531 6.386719 36.40625 6.625 35.964844 7.109375 L 34.71875 14.164062 L 31.6875 14.164062 L 33.417969 4.1875 Z M 36.25 4.175781 "
       id="path830" />
  </g>
</svg>
